<?xml version="1.0" encoding="utf-8"?>
<!-- Generator: Adobe Illustrator 25.2.0, SVG Export Plug-In . SVG Version: 6.00 Build 0)  -->
<svg version="1.1" id="katman_1" xmlns="http://www.w3.org/2000/svg" xmlns:xlink="http://www.w3.org/1999/xlink" x="0px" y="0px"
	 viewBox="0 0 1080 1080" enable-background="new 0 0 1080 1080" xml:space="preserve">
<path display="none" fill="#FFFFFF" d="M1080,1080c-359.97,0-719.94,0-1080,0C0,720.07,0,360.11,0,0c359.94,0,719.97,0,1080,0
	C1080,359.94,1080,719.95,1080,1080z M596.99,629.26c0.9,0,2.69,0,4.48,0c24.67,0,49.34,0.41,73.99-0.11
	c32.51-0.69,57.32-15.02,74.59-42.95c9.42-15.24,12.78-31.48,12.22-49.01c-1.01-31.48-16.02-55.01-41.7-71.86
	c-14.05-9.22-30.07-13.01-47.03-12.96c-50.33,0.13-100.66,0.05-150.99,0.05c-45.5,0-91,0.08-136.49-0.12
	c-4.75-0.02-5.86,1.41-5.76,5.9c0.28,12.83,0.3,25.67-0.01,38.5c-0.12,4.77,1.19,6.18,6.1,6.18c94.99-0.15,189.99-0.11,284.98-0.11
	c2,0,4,0.02,5.99,0.14c16.95,1,29.31,10.95,34.02,27.25c7.53,26.02-10.89,48.71-35.99,49.04c-28.99,0.39-58,0.45-86.99-0.18
	c-6.46-0.14-13.03-3.28-19.23-5.81c-8.21-3.34-11.8-11.41-16.52-18.15c-2.04-2.91-4.11-4.1-7.72-4.09
	c-56.83,0.12-113.66,0.08-170.49,0.08c-6.51,0-6.51,0-6.51-6.52c0-62,0-124-0.01-186.01c0-1.72-0.15-3.45-0.26-5.73
	c-2.13,0.73-3.56,1.09-4.87,1.7c-16.48,7.66-29.56,18.85-37.6,35.53c-4.24,8.8-7.33,17.7-7.32,27.69
	c0.1,101.5,0.06,203.01,0.07,304.51c0,1.76,0.16,3.53,0.26,5.64c1.99,0,3.46,0,4.93,0c60.83,0,121.66-0.05,182.49,0.02
	c20.71,0.02,39.08-6.28,55.58-18.87c16-12.2,26.16-28.25,31.22-47.29C595.12,651.59,595.45,640.82,596.99,629.26z M380.65,352.02
	c-0.1,2.11-0.24,3.89-0.25,5.66c-0.02,12.66,0.23,25.33-0.13,37.99c-0.14,4.95,1.49,6.01,6.18,6.01
	c123.3-0.12,246.59-0.1,369.89-0.11c1.75,0,3.49-0.15,5.69-0.25c-2.83-11.2-9.51-19.49-16.75-26.76
	c-15.05-15.11-33.57-22.62-55.25-22.57c-75.64,0.17-151.29,0.04-226.93,0.03C435.96,352.02,408.8,352.02,380.65,352.02z"/>
<path display="none" fill="#FFFEFE" d="M368.22,677.91c-0.1-1.81-0.23-3.11-0.23-4.42c-0.01-22.66,0.1-45.32-0.1-67.98
	c-0.04-4.13,1.35-4.96,5.15-4.95c44.31,0.12,88.63,0.14,132.95,0.05c16.96-0.03,28.86,8.24,36.51,22.62
	c5.46,10.26,5.07,28.64-5.69,40.68c-8.94,10.01-19.96,14.24-32.74,14.29c-44.15,0.19-88.3,0.07-132.45,0.05
	C370.65,678.26,369.68,678.06,368.22,677.91z"/>
<g>
	<path fill="#121213" d="M1080,1080c-359.97,0-719.94,0-1080,0C0,720.07,0,360.11,0,0c359.94,0,719.97,0,1080,0
		C1080,359.94,1080,719.95,1080,1080z M596.94,629.1c0.32,0,1.93,0,3.53,0c24.34,0,48.67,0.11,73-0.03
		c33.63-0.19,59.15-14.64,76.83-43.4c13.75-22.38,15.14-46.35,8.43-70.64c-5.89-21.31-19.28-38.09-38.24-49.76
		c-14.65-9.02-30.81-12.84-48.1-12.81c-95.84,0.14-191.68,0.07-287.52,0.09c-1.28,0-2.56,0.18-4.07,0.29
		c-0.08,1.59-0.21,2.88-0.21,4.18c-0.01,13.5,0.16,27.01-0.11,40.5c-0.08,4.23,1.2,5.25,5.34,5.24
		c95.34-0.12,190.68-0.1,286.02-0.08c3,0,6.18-0.42,8.95,0.43c5.65,1.74,11.8,3.2,16.48,6.55c16.65,11.95,18.87,29.67,13.07,46.59
		c-3.82,11.15-18.67,23.11-34.53,23.1c-29.17-0.01-58.34,0.36-87.5-0.27c-6.45-0.14-13.01-3.33-19.21-5.87
		c-8.37-3.44-11.91-11.74-16.8-18.55c-1.85-2.58-3.62-3.67-6.87-3.67c-57.17,0.11-114.34,0.02-171.51,0.18
		c-4.72,0.01-6.14-1.08-6.12-5.97c0.17-62.18,0.11-124.35,0.1-186.53c0-1.74,0-3.48,0-5.84c-2.24,0.76-3.67,1.11-4.98,1.71
		c-16.55,7.55-29.57,18.8-37.63,35.43c-4.26,8.79-7.38,17.7-7.37,27.68c0.08,101.52,0.05,203.03,0.05,304.55c0,1.76,0,3.53,0,5.65
		c2.19,0,3.66,0,5.14,0c59.84,0,119.68-0.12,179.51,0.05c28.54,0.08,52.41-9.6,71.46-31.31c8.9-10.14,14.81-21.76,18.12-34.41
		C594.93,651.74,595.37,640.69,596.94,629.1z M380.9,352c0,16.58,0,32.8,0,49.02c127.16,0,253.99,0,380.89,0
		c-1.4-8.74-10.32-20.2-16.04-25.95c-15.07-15.14-33.48-23.02-55.08-23.01c-60.5,0.01-121-0.04-181.49-0.06
		C466.69,351.99,424.19,352,380.9,352z"/>
	<path fill="#FCFCFC" d="M596.94,629.1c-1.57,11.59-2.01,22.64-4.74,33.1c-3.3,12.65-9.22,24.26-18.12,34.41
		c-19.05,21.71-42.92,31.39-71.46,31.31c-59.84-0.17-119.67-0.05-179.51-0.05c-1.47,0-2.95,0-5.14,0c0-2.12,0-3.88,0-5.65
		c0-101.52,0.03-203.03-0.05-304.55c-0.01-9.97,3.11-18.89,7.37-27.68c8.06-16.63,21.08-27.88,37.63-35.43
		c1.31-0.6,2.74-0.95,4.98-1.71c0,2.36,0,4.1,0,5.84c0,62.18,0.06,124.35-0.1,186.53c-0.01,4.9,1.4,5.99,6.12,5.97
		c57.17-0.17,114.34-0.08,171.51-0.18c3.25-0.01,5.02,1.09,6.87,3.67c4.89,6.81,8.43,15.11,16.8,18.55
		c6.2,2.54,12.75,5.73,19.21,5.87c29.16,0.62,58.33,0.26,87.5,0.27c15.86,0,30.72-11.96,34.53-23.1
		c5.79-16.93,3.58-34.64-13.07-46.59c-4.67-3.35-10.82-4.82-16.48-6.55c-2.77-0.85-5.95-0.43-8.95-0.43
		c-95.34-0.01-190.68-0.04-286.02,0.08c-4.14,0.01-5.42-1.01-5.34-5.24c0.26-13.5,0.09-27,0.11-40.5c0-1.3,0.13-2.6,0.21-4.18
		c1.51-0.11,2.79-0.29,4.07-0.29c95.84-0.02,191.68,0.05,287.52-0.09c17.29-0.03,33.45,3.8,48.1,12.81
		c18.96,11.67,32.36,28.45,38.24,49.76c6.71,24.29,5.32,48.26-8.43,70.64c-17.68,28.77-43.2,43.22-76.83,43.4
		c-24.33,0.13-48.67,0.03-73,0.03C598.87,629.1,597.26,629.1,596.94,629.1z M367.95,677.92c1.34,0.21,1.98,0.4,2.63,0.4
		c44.66,0.02,89.33,0.17,133.99-0.06c12.78-0.06,23.73-4.56,32.57-14.64c10.36-11.82,10.78-29.79,5.68-39.82
		c-7.6-14.94-19.79-23.3-37.12-23.27c-44.33,0.07-88.66,0.09-132.99-0.08c-4.25-0.02-4.89,1.42-4.84,5.17
		c0.2,14.66,0.08,29.33,0.08,44C367.95,658.92,367.95,668.22,367.95,677.92z"/>
	<path fill="#FCFBFC" d="M380.9,352c43.3,0,85.79-0.01,128.28,0c60.5,0.02,121,0.07,181.49,0.06c21.6-0.01,40.01,7.87,55.08,23.01
		c5.72,5.75,14.64,17.21,16.04,25.95c-126.91,0-253.73,0-380.89,0C380.9,384.8,380.9,368.58,380.9,352z"/>
	<path fill="#141415" d="M367.95,677.92c0-9.7,0-19,0-28.3c0-14.67,0.12-29.34-0.08-44c-0.05-3.76,0.59-5.19,4.84-5.17
		c44.33,0.17,88.66,0.15,132.99,0.08c17.33-0.03,29.52,8.33,37.12,23.27c5.1,10.03,4.68,28-5.68,39.82
		c-8.84,10.08-19.78,14.58-32.57,14.64c-44.66,0.22-89.33,0.08-133.99,0.06C369.93,678.32,369.29,678.13,367.95,677.92z"/>
</g>
</svg>
